<svg width="12" height="12" viewBox="0 0 12 12" fill="none" xmlns="http://www.w3.org/2000/svg">
<path fill-rule="evenodd" clip-rule="evenodd" d="M6.13469 0.717773C3.20702 0.717773 0.825195 3.1843 0.825195 6.21608C0.825195 9.24787 3.20702 11.7144 6.13469 11.7144C9.06236 11.7144 11.4442 9.24787 11.4442 6.21608C11.4442 3.1843 9.06236 0.717773 6.13469 0.717773ZM9.64519 3.2533C10.2768 4.05246 10.6593 5.07033 10.6693 6.17882C10.5198 6.14607 9.0204 5.83114 7.51139 6.02766C7.38824 5.71636 7.27201 5.44251 7.11281 5.10505C8.78961 4.3961 9.54957 3.38723 9.64519 3.2533ZM6.76428 4.40674C8.37691 3.7808 9.05959 2.83059 9.14116 2.71027C8.02584 1.68557 6.51028 1.2984 5.0721 1.65741C5.19745 1.83123 6.02113 2.99279 6.76428 4.40674ZM4.20655 1.97295C4.32612 2.14276 5.13653 3.30576 5.88797 4.68905C3.76659 5.27243 1.89814 5.26402 1.69531 5.26125C1.98939 3.80391 2.93778 2.59269 4.20655 1.97295ZM1.60191 6.07966C1.60051 6.12735 1.59959 6.17515 1.59959 6.22317C1.59959 7.42941 2.04114 8.53073 2.76548 9.36333C3.50061 8.06016 4.99058 6.68665 6.63051 6.20832C6.51668 5.94152 6.39265 5.67443 6.26283 5.41131C3.99803 6.11321 1.80033 6.08387 1.60191 6.07966ZM3.35089 9.92834C3.82461 8.9255 5.11026 7.63098 6.93863 6.98506C7.57534 8.69847 7.83865 10.1345 7.90609 10.5465C6.44786 11.1897 4.69438 11.0133 3.35089 9.92834ZM7.78764 6.76802C8.38081 8.456 8.6222 9.83082 8.66868 10.1165C9.68608 9.40408 10.4104 8.27553 10.6125 6.96878C10.4574 6.91807 9.20879 6.53244 7.78764 6.76802Z" fill="white"/>
<mask id="mask0" mask-type="alpha" maskUnits="userSpaceOnUse" x="0" y="0" width="12" height="12">
<path fill-rule="evenodd" clip-rule="evenodd" d="M6.13469 0.717773C3.20702 0.717773 0.825195 3.1843 0.825195 6.21608C0.825195 9.24787 3.20702 11.7144 6.13469 11.7144C9.06236 11.7144 11.4442 9.24787 11.4442 6.21608C11.4442 3.1843 9.06236 0.717773 6.13469 0.717773ZM9.64519 3.2533C10.2768 4.05246 10.6593 5.07033 10.6693 6.17882C10.5198 6.14607 9.0204 5.83114 7.51139 6.02766C7.38824 5.71636 7.27201 5.44251 7.11281 5.10505C8.78961 4.3961 9.54957 3.38723 9.64519 3.2533ZM6.76428 4.40674C8.37691 3.7808 9.05959 2.83059 9.14116 2.71027C8.02584 1.68557 6.51028 1.2984 5.0721 1.65741C5.19745 1.83123 6.02113 2.99279 6.76428 4.40674ZM4.20655 1.97295C4.32612 2.14276 5.13653 3.30576 5.88797 4.68905C3.76659 5.27243 1.89814 5.26402 1.69531 5.26125C1.98939 3.80391 2.93778 2.59269 4.20655 1.97295ZM1.60191 6.07966C1.60051 6.12735 1.59959 6.17515 1.59959 6.22317C1.59959 7.42941 2.04114 8.53073 2.76548 9.36333C3.50061 8.06016 4.99058 6.68665 6.63051 6.20832C6.51668 5.94152 6.39265 5.67443 6.26283 5.41131C3.99803 6.11321 1.80033 6.08387 1.60191 6.07966ZM3.35089 9.92834C3.82461 8.9255 5.11026 7.63098 6.93863 6.98506C7.57534 8.69847 7.83865 10.1345 7.90609 10.5465C6.44786 11.1897 4.69438 11.0133 3.35089 9.92834ZM7.78764 6.76802C8.38081 8.456 8.6222 9.83082 8.66868 10.1165C9.68608 9.40408 10.4104 8.27553 10.6125 6.96878C10.4574 6.91807 9.20879 6.53244 7.78764 6.76802Z" fill="white"/>
</mask>
<g mask="url(#mask0)">
</g>
</svg>
