<svg width="7" height="12" viewBox="0 0 7 12" fill="none" xmlns="http://www.w3.org/2000/svg">
<path d="M2.15049 11.4593V6.38219H0.398926V4.36467H2.15049V2.77503C2.15049 1.04794 3.23751 0.10791 4.82465 0.10791C5.5851 0.10791 6.23823 0.163337 6.42777 0.187724V1.99241H5.32705C4.46383 1.99241 4.29712 2.39148 4.29712 2.97457V4.36467H6.24508L5.97789 6.38219H4.29712V11.4593" fill="white"/>
<mask id="mask0" mask-type="alpha" maskUnits="userSpaceOnUse" x="0" y="0" width="7" height="12">
<path d="M2.15049 11.4593V6.38219H0.398926V4.36467H2.15049V2.77503C2.15049 1.04794 3.23751 0.10791 4.82465 0.10791C5.5851 0.10791 6.23823 0.163337 6.42777 0.187724V1.99241H5.32705C4.46383 1.99241 4.29712 2.39148 4.29712 2.97457V4.36467H6.24508L5.97789 6.38219H4.29712V11.4593" fill="white"/>
</mask>
<g mask="url(#mask0)">
</g>
</svg>
