<svg width="12" height="10" viewBox="0 0 12 10" fill="none" xmlns="http://www.w3.org/2000/svg">
<path d="M10.0081 2.47195C10.0151 2.57278 10.0151 2.67363 10.0151 2.77446C10.0151 5.84997 7.75462 9.39368 3.62316 9.39368C2.35034 9.39368 1.16795 9.01192 0.17334 8.34931C0.354184 8.3709 0.528049 8.37811 0.715851 8.37811C1.76608 8.37811 2.73288 8.01079 3.50492 7.38416C2.51727 7.36254 1.68959 6.6927 1.40442 5.77076C1.54353 5.79235 1.68263 5.80676 1.8287 5.80676C2.0304 5.80676 2.23212 5.77794 2.4199 5.72755C1.39052 5.51145 0.61846 4.57512 0.61846 3.4443V3.4155C0.917526 3.58837 1.26532 3.69641 1.63392 3.7108C1.02881 3.29303 0.632376 2.57998 0.632376 1.77328C0.632376 1.34113 0.74364 0.944989 0.9384 0.599261C2.0443 2.01097 3.70662 2.93289 5.57062 3.03375C5.53585 2.86088 5.51497 2.68084 5.51497 2.50077C5.51497 1.21869 6.51654 0.174316 7.76153 0.174316C8.40837 0.174316 8.99261 0.455218 9.40298 0.908984C9.9107 0.808152 10.3976 0.613671 10.8288 0.347181C10.6619 0.88739 10.3072 1.34116 9.84117 1.62924C10.2933 1.57885 10.7314 1.44917 11.1348 1.26912C10.8289 1.73007 10.4463 2.14061 10.0081 2.47195Z" fill="white"/>
<mask id="mask0" mask-type="alpha" maskUnits="userSpaceOnUse" x="0" y="0" width="12" height="10">
<path d="M10.0081 2.47195C10.0151 2.57278 10.0151 2.67363 10.0151 2.77446C10.0151 5.84997 7.75462 9.39368 3.62316 9.39368C2.35034 9.39368 1.16795 9.01192 0.17334 8.34931C0.354184 8.3709 0.528049 8.37811 0.715851 8.37811C1.76608 8.37811 2.73288 8.01079 3.50492 7.38416C2.51727 7.36254 1.68959 6.6927 1.40442 5.77076C1.54353 5.79235 1.68263 5.80676 1.8287 5.80676C2.0304 5.80676 2.23212 5.77794 2.4199 5.72755C1.39052 5.51145 0.61846 4.57512 0.61846 3.4443V3.4155C0.917526 3.58837 1.26532 3.69641 1.63392 3.7108C1.02881 3.29303 0.632376 2.57998 0.632376 1.77328C0.632376 1.34113 0.74364 0.944989 0.9384 0.599261C2.0443 2.01097 3.70662 2.93289 5.57062 3.03375C5.53585 2.86088 5.51497 2.68084 5.51497 2.50077C5.51497 1.21869 6.51654 0.174316 7.76153 0.174316C8.40837 0.174316 8.99261 0.455218 9.40298 0.908984C9.9107 0.808152 10.3976 0.613671 10.8288 0.347181C10.6619 0.88739 10.3072 1.34116 9.84117 1.62924C10.2933 1.57885 10.7314 1.44917 11.1348 1.26912C10.8289 1.73007 10.4463 2.14061 10.0081 2.47195Z" fill="white"/>
</mask>
<g mask="url(#mask0)">
</g>
</svg>
